<?xml version="1.0" standalone="no"?>
<!DOCTYPE svg PUBLIC "-//W3C//DTD SVG 20010904//EN"
 "http://www.w3.org/TR/2001/REC-SVG-20010904/DTD/svg10.dtd">
<svg version="1.0" xmlns="http://www.w3.org/2000/svg"
 width="256.000000pt" height="256.000000pt" viewBox="0 0 256.000000 256.000000"
 preserveAspectRatio="xMidYMid meet">

<g transform="translate(0.000000,256.000000) scale(0.100000,-0.100000)"
fill="#000000" stroke="none">
<path d="M0 1280 l0 -1280 1280 0 1280 0 0 1280 0 1280 -1280 0 -1280 0 0
-1280z m1142 371 c-3 -31 0 -51 8 -56 7 -4 -9 -16 -41 -32 -99 -45 -164 -119
-194 -217 -4 -14 -9 -16 -17 -8 -18 18 -4 141 22 197 41 85 140 164 206 165
19 0 21 -4 16 -49z m343 -209 c64 -31 119 -84 141 -138 8 -19 14 -35 14 -37 0
-2 -24 -20 -54 -40 l-53 -35 -22 53 c-30 72 -73 129 -118 159 -35 22 -102 48
-77 29 6 -4 23 -27 37 -50 l27 -42 -33 -6 c-17 -3 -65 -5 -106 -3 -67 3 -76 6
-94 30 -13 18 -18 34 -13 51 13 52 27 57 164 57 119 0 131 -2 187 -28z m-371
-239 c30 -35 77 -67 116 -78 14 -3 20 -3 14 2 -6 4 -23 27 -37 49 l-26 42 22
6 c12 3 59 6 104 6 76 0 83 -2 102 -26 12 -15 21 -34 21 -44 0 -10 -9 -29 -21
-44 -20 -26 -22 -26 -147 -26 -119 0 -131 2 -187 28 -65 31 -119 84 -142 141
-14 33 -14 36 2 46 9 5 34 22 54 36 l36 26 31 -66 c17 -36 43 -80 58 -98z
m550 -59 c-1 -83 -29 -149 -87 -207 -41 -41 -107 -76 -143 -77 -19 0 -20 4
-16 55 3 42 1 55 -9 55 -8 0 10 11 40 25 29 14 71 39 93 56 41 33 98 121 98
152 0 11 5 17 13 14 8 -3 12 -26 11 -73z"/>
</g>
</svg>
